<svg id="visual" viewBox="0 0 960 540" width="960" height="540" xmlns="http://www.w3.org/2000/svg" xmlns:xlink="http://www.w3.org/1999/xlink" version="1.1"><g stroke-width="1" stroke-linejoin="bevel"><path d="M485.8 252.5L495.3 236.4L467.7 214.5Z" fill="#000000" stroke="#000000"></path><path d="M495.3 236.4L481.3 202.5L467.7 214.5Z" fill="#0186c5" stroke="#0186c5"></path><path d="M495.3 236.4L491.3 200.3L481.3 202.5Z" fill="#0186c5" stroke="#0186c5"></path><path d="M400.2 201.4L421.7 249.4L467.7 214.5Z" fill="#000000" stroke="#000000"></path><path d="M467.7 214.5L421.7 249.4L485.8 252.5Z" fill="#00a8e8" stroke="#00a8e8"></path><path d="M540.8 209.5L528.8 197.4L495.3 236.4Z" fill="#00467d" stroke="#00467d"></path><path d="M495.3 236.4L528.8 197.4L491.3 200.3Z" fill="#001948" stroke="#001948"></path><path d="M562.3 258.4L540.8 209.5L495.3 236.4Z" fill="#000000" stroke="#000000"></path><path d="M421.7 249.4L426.3 295.5L485.8 252.5Z" fill="#00467d" stroke="#00467d"></path><path d="M479.8 323.6L533.3 287.5L485.8 252.5Z" fill="#0176b3" stroke="#0176b3"></path><path d="M485.8 252.5L533.3 287.5L495.3 236.4Z" fill="#002759" stroke="#002759"></path><path d="M400.2 201.4L467.7 214.5L440.2 131.2Z" fill="#00467d" stroke="#00467d"></path><path d="M394.2 165.5L400.2 201.4L440.2 131.2Z" fill="#00568f" stroke="#00568f"></path><path d="M421.7 249.4L330.7 257.5L426.3 295.5Z" fill="#0166a1" stroke="#0166a1"></path><path d="M467.7 214.5L481.3 202.5L440.2 131.2Z" fill="#0186c5" stroke="#0186c5"></path><path d="M479.8 323.6L535.3 290.5L533.3 287.5Z" fill="#001948" stroke="#001948"></path><path d="M533.3 287.5L562.3 258.4L495.3 236.4Z" fill="#0166a1" stroke="#0166a1"></path><path d="M400.2 201.4L392.2 217.5L421.7 249.4Z" fill="#00a8e8" stroke="#00a8e8"></path><path d="M426.3 295.5L479.8 323.6L485.8 252.5Z" fill="#00366b" stroke="#00366b"></path><path d="M535.3 290.5L562.3 258.4L533.3 287.5Z" fill="#00a8e8" stroke="#00a8e8"></path><path d="M426.3 295.5L466.3 334.6L479.8 323.6Z" fill="#001948" stroke="#001948"></path><path d="M479.8 323.6L488.7 357.5L535.3 290.5Z" fill="#002759" stroke="#002759"></path><path d="M449.2 129.3L481.3 202.5L491.3 200.3Z" fill="#00568f" stroke="#00568f"></path><path d="M400.2 201.4L394.2 165.5L392.2 217.5Z" fill="#00568f" stroke="#00568f"></path><path d="M528.8 197.4L449.2 129.3L491.3 200.3Z" fill="#002759" stroke="#002759"></path><path d="M449.2 129.3L440.2 131.2L481.3 202.5Z" fill="#001948" stroke="#001948"></path><path d="M478.2 366.8L475.7 345.6L443.7 378.7Z" fill="#00568f" stroke="#00568f"></path><path d="M466.3 334.6L475.7 345.6L479.8 323.6Z" fill="#002759" stroke="#002759"></path><path d="M464.7 87.3L421.7 126.4L440.2 131.2Z" fill="#000000" stroke="#000000"></path><path d="M440.2 131.2L421.7 126.4L394.2 165.5Z" fill="#0166a1" stroke="#0166a1"></path><path d="M475.7 345.6L488.7 357.5L479.8 323.6Z" fill="#000000" stroke="#000000"></path><path d="M605.8 262.5L604.8 221.4L562.3 258.4Z" fill="#0166a1" stroke="#0166a1"></path><path d="M580.8 312.7L562.3 258.4L535.3 290.5Z" fill="#001948" stroke="#001948"></path><path d="M562.3 258.4L604.8 221.4L540.8 209.5Z" fill="#00467d" stroke="#00467d"></path><path d="M540.8 209.5L629.4 151.3L528.8 197.4Z" fill="#00a8e8" stroke="#00a8e8"></path><path d="M477.8 78.3L464.7 87.3L449.2 129.3Z" fill="#0186c5" stroke="#0186c5"></path><path d="M475.7 345.6L478.2 366.8L488.7 357.5Z" fill="#0186c5" stroke="#0186c5"></path><path d="M443.7 378.7L475.7 345.6L466.3 334.6Z" fill="#00467d" stroke="#00467d"></path><path d="M573.3 394.8L580.8 312.7L488.7 357.5Z" fill="#0166a1" stroke="#0166a1"></path><path d="M488.7 357.5L580.8 312.7L535.3 290.5Z" fill="#0176b3" stroke="#0176b3"></path><path d="M580.8 312.7L605.8 262.5L562.3 258.4Z" fill="#00366b" stroke="#00366b"></path><path d="M394.2 165.5L331.2 230.4L392.2 217.5Z" fill="#0186c5" stroke="#0186c5"></path><path d="M392.2 217.5L330.7 257.5L421.7 249.4Z" fill="#001948" stroke="#001948"></path><path d="M426.3 295.5L443.7 378.7L466.3 334.6Z" fill="#0097d6" stroke="#0097d6"></path><path d="M305.6 198.5L331.2 230.4L394.2 165.5Z" fill="#00568f" stroke="#00568f"></path><path d="M330.7 257.5L372.7 338.6L426.3 295.5Z" fill="#0186c5" stroke="#0186c5"></path><path d="M331.2 230.4L330.7 257.5L392.2 217.5Z" fill="#001948" stroke="#001948"></path><path d="M372.7 338.6L443.7 378.7L426.3 295.5Z" fill="#00568f" stroke="#00568f"></path><path d="M477.8 78.3L449.2 129.3L528.8 197.4Z" fill="#000000" stroke="#000000"></path><path d="M449.2 129.3L464.7 87.3L440.2 131.2Z" fill="#00467d" stroke="#00467d"></path><path d="M483.3 72.2L477.8 78.3L605.3 105.2Z" fill="#0186c5" stroke="#0186c5"></path><path d="M399.7 77.3L356.2 124.3L421.7 126.4Z" fill="#00467d" stroke="#00467d"></path><path d="M421.7 126.4L356.2 124.3L394.2 165.5Z" fill="#00568f" stroke="#00568f"></path><path d="M347.2 122.2L356.2 124.3L399.7 77.3Z" fill="#0186c5" stroke="#0186c5"></path><path d="M605.3 105.2L477.8 78.3L528.8 197.4Z" fill="#000000" stroke="#000000"></path><path d="M477.8 78.3L452.2 50.1L464.7 87.3Z" fill="#000000" stroke="#000000"></path><path d="M364.7 379.8L392.2 380.7L372.7 338.6Z" fill="#00a8e8" stroke="#00a8e8"></path><path d="M372.7 338.6L392.2 380.7L443.7 378.7Z" fill="#00a8e8" stroke="#00a8e8"></path><path d="M399.7 77.3L421.7 126.4L464.7 87.3Z" fill="#00366b" stroke="#00366b"></path><path d="M356.2 124.3L305.6 198.5L394.2 165.5Z" fill="#0186c5" stroke="#0186c5"></path><path d="M347.2 122.2L305.6 198.5L356.2 124.3Z" fill="#0166a1" stroke="#0166a1"></path><path d="M331.2 230.4L275.1 269.5L330.7 257.5Z" fill="#0097d6" stroke="#0097d6"></path><path d="M452.2 50.1L399.7 77.3L464.7 87.3Z" fill="#00366b" stroke="#00366b"></path><path d="M652.8 225.5L629.4 151.3L604.8 221.4Z" fill="#00366b" stroke="#00366b"></path><path d="M604.8 221.4L629.4 151.3L540.8 209.5Z" fill="#002759" stroke="#002759"></path><path d="M670.3 269.6L652.8 225.5L605.8 262.5Z" fill="#0176b3" stroke="#0176b3"></path><path d="M605.8 262.5L652.8 225.5L604.8 221.4Z" fill="#0186c5" stroke="#0186c5"></path><path d="M332.6 363.5L364.7 379.8L372.7 338.6Z" fill="#0097d6" stroke="#0097d6"></path><path d="M332.6 363.5L372.7 338.6L279.2 317.5Z" fill="#0097d6" stroke="#0097d6"></path><path d="M629.4 151.3L605.3 105.2L528.8 197.4Z" fill="#00366b" stroke="#00366b"></path><path d="M386.2 419.6L455.3 418.9L443.7 378.7Z" fill="#000000" stroke="#000000"></path><path d="M443.7 378.7L455.3 418.9L478.2 366.8Z" fill="#0097d6" stroke="#0097d6"></path><path d="M478.2 366.8L573.3 394.8L488.7 357.5Z" fill="#002759" stroke="#002759"></path><path d="M386.2 419.6L443.7 378.7L392.2 380.7Z" fill="#0097d6" stroke="#0097d6"></path><path d="M503.7 32.2L452.2 50.1L483.3 72.2Z" fill="#0176b3" stroke="#0176b3"></path><path d="M483.3 72.2L452.2 50.1L477.8 78.3Z" fill="#002759" stroke="#002759"></path><path d="M455.3 418.9L573.3 394.8L478.2 366.8Z" fill="#0176b3" stroke="#0176b3"></path><path d="M643.3 349.7L670.3 269.6L605.8 262.5Z" fill="#00467d" stroke="#00467d"></path><path d="M279.2 317.5L372.7 338.6L330.7 257.5Z" fill="#00467d" stroke="#00467d"></path><path d="M452.2 50.1L402.7 56.2L399.7 77.3Z" fill="#002759" stroke="#002759"></path><path d="M399.7 77.3L334.2 0L347.2 122.2Z" fill="#0176b3" stroke="#0176b3"></path><path d="M573.3 394.8L615.8 371.7L580.8 312.7Z" fill="#002759" stroke="#002759"></path><path d="M347.2 122.2L282.1 184.5L305.6 198.5Z" fill="#00467d" stroke="#00467d"></path><path d="M305.6 198.5L275.1 269.5L331.2 230.4Z" fill="#000000" stroke="#000000"></path><path d="M256.6 179.4L282.1 184.5L275.7 114.1Z" fill="#001948" stroke="#001948"></path><path d="M643.3 349.7L605.8 262.5L580.8 312.7Z" fill="#00568f" stroke="#00568f"></path><path d="M652.8 225.5L663.4 164.2L629.4 151.3Z" fill="#001948" stroke="#001948"></path><path d="M670.3 269.6L673.3 225.3L652.8 225.5Z" fill="#001948" stroke="#001948"></path><path d="M629.4 151.3L634.4 112.1L605.3 105.2Z" fill="#0166a1" stroke="#0166a1"></path><path d="M663.4 164.2L634.4 112.1L629.4 151.3Z" fill="#00568f" stroke="#00568f"></path><path d="M584.3 47.1L503.7 32.2L483.3 72.2Z" fill="#00366b" stroke="#00366b"></path><path d="M282.1 184.5L275.1 269.5L305.6 198.5Z" fill="#0166a1" stroke="#0166a1"></path><path d="M673.3 225.3L663.4 164.2L652.8 225.5Z" fill="#00366b" stroke="#00366b"></path><path d="M615.8 371.7L643.3 349.7L580.8 312.7Z" fill="#000000" stroke="#000000"></path><path d="M361.7 445.7L386.2 419.6L364.7 379.8Z" fill="#0166a1" stroke="#0166a1"></path><path d="M364.7 379.8L386.2 419.6L392.2 380.7Z" fill="#0186c5" stroke="#0186c5"></path><path d="M589.8 57.2L483.3 72.2L605.3 105.2Z" fill="#00568f" stroke="#00568f"></path><path d="M452.2 50.1L386.7 0L402.7 56.2Z" fill="#001948" stroke="#001948"></path><path d="M271.2 303.5L279.2 317.5L330.7 257.5Z" fill="#001948" stroke="#001948"></path><path d="M332.6 363.5L361.7 445.7L364.7 379.8Z" fill="#002759" stroke="#002759"></path><path d="M634.4 112.1L589.8 57.2L605.3 105.2Z" fill="#00366b" stroke="#00366b"></path><path d="M271.2 303.5L276.7 316.5L279.2 317.5Z" fill="#0186c5" stroke="#0186c5"></path><path d="M279.2 317.5L288.2 385.6L332.6 363.5Z" fill="#00366b" stroke="#00366b"></path><path d="M275.1 269.5L271.2 303.5L330.7 257.5Z" fill="#0176b3" stroke="#0176b3"></path><path d="M212.6 277.6L271.2 303.5L275.1 269.5Z" fill="#00a8e8" stroke="#00a8e8"></path><path d="M597.8 12.1L584.3 47.1L589.8 57.2Z" fill="#000000" stroke="#000000"></path><path d="M589.8 57.2L584.3 47.1L483.3 72.2Z" fill="#00a8e8" stroke="#00a8e8"></path><path d="M457.3 478.8L470.3 455.7L425.7 481.8Z" fill="#00366b" stroke="#00366b"></path><path d="M455.3 418.9L470.3 455.7L573.3 394.8Z" fill="#0097d6" stroke="#0097d6"></path><path d="M657.4 389.6L647.8 378.8L615.8 371.7Z" fill="#001948" stroke="#001948"></path><path d="M275.7 114.1L282.1 184.5L347.2 122.2Z" fill="#00467d" stroke="#00467d"></path><path d="M282.1 184.5L256.6 179.4L275.1 269.5Z" fill="#0176b3" stroke="#0176b3"></path><path d="M657.4 389.6L615.8 371.7L573.3 394.8Z" fill="#00a8e8" stroke="#00a8e8"></path><path d="M615.8 371.7L647.8 378.8L643.3 349.7Z" fill="#001948" stroke="#001948"></path><path d="M720.8 318.6L712.4 256.4L670.3 269.6Z" fill="#001948" stroke="#001948"></path><path d="M712.4 256.4L703.4 235.5L670.3 269.6Z" fill="#00467d" stroke="#00467d"></path><path d="M670.3 269.6L703.4 235.5L673.3 225.3Z" fill="#0186c5" stroke="#0186c5"></path><path d="M673.3 225.3L697.9 179.4L663.4 164.2Z" fill="#002759" stroke="#002759"></path><path d="M663.4 164.2L685.3 83.1L634.4 112.1Z" fill="#0176b3" stroke="#0176b3"></path><path d="M703.4 235.5L697.9 179.4L673.3 225.3Z" fill="#001948" stroke="#001948"></path><path d="M597.8 12.1L565.3 0L584.3 47.1Z" fill="#0166a1" stroke="#0166a1"></path><path d="M310.2 0L275.7 114.1L347.2 122.2Z" fill="#0166a1" stroke="#0166a1"></path><path d="M565.3 0L468.3 0L503.7 32.2Z" fill="#00568f" stroke="#00568f"></path><path d="M503.7 32.2L468.3 0L452.2 50.1Z" fill="#0097d6" stroke="#0097d6"></path><path d="M402.7 56.2L334.2 0L399.7 77.3Z" fill="#000000" stroke="#000000"></path><path d="M288.2 385.6L361.7 445.7L332.6 363.5Z" fill="#0186c5" stroke="#0186c5"></path><path d="M425.7 481.8L470.3 455.7L455.3 418.9Z" fill="#0166a1" stroke="#0166a1"></path><path d="M700.4 330.7L670.3 269.6L643.3 349.7Z" fill="#001948" stroke="#001948"></path><path d="M733.4 200.5L707.8 173.2L697.9 179.4Z" fill="#001948" stroke="#001948"></path><path d="M256.2 357.7L279.2 317.5L276.7 316.5Z" fill="#0097d6" stroke="#0097d6"></path><path d="M256.2 357.7L288.2 385.6L279.2 317.5Z" fill="#001948" stroke="#001948"></path><path d="M562.8 477.8L657.4 389.6L573.3 394.8Z" fill="#002759" stroke="#002759"></path><path d="M647.8 378.8L700.4 330.7L643.3 349.7Z" fill="#00467d" stroke="#00467d"></path><path d="M733.4 200.5L697.9 179.4L703.4 235.5Z" fill="#0186c5" stroke="#0186c5"></path><path d="M697.9 179.4L707.8 173.2L663.4 164.2Z" fill="#0166a1" stroke="#0166a1"></path><path d="M425.7 481.8L455.3 418.9L386.2 419.6Z" fill="#00568f" stroke="#00568f"></path><path d="M470.3 455.7L562.8 477.8L573.3 394.8Z" fill="#000000" stroke="#000000"></path><path d="M657.4 389.6L700.4 330.7L647.8 378.8Z" fill="#00366b" stroke="#00366b"></path><path d="M212.6 333.5L276.7 316.5L271.2 303.5Z" fill="#00568f" stroke="#00568f"></path><path d="M212.6 333.5L256.2 357.7L276.7 316.5Z" fill="#0186c5" stroke="#0186c5"></path><path d="M468.3 0L386.7 0L452.2 50.1Z" fill="#0176b3" stroke="#0176b3"></path><path d="M395.2 490.9L425.7 481.8L386.2 419.6Z" fill="#00568f" stroke="#00568f"></path><path d="M597.8 12.1L628.8 0L614.8 0Z" fill="#001948" stroke="#001948"></path><path d="M584.3 47.1L565.3 0L503.7 32.2Z" fill="#0186c5" stroke="#0186c5"></path><path d="M386.7 0L381.7 0L402.7 56.2Z" fill="#0166a1" stroke="#0166a1"></path><path d="M685.3 83.1L589.8 57.2L634.4 112.1Z" fill="#0097d6" stroke="#0097d6"></path><path d="M483.3 540L470.3 455.7L457.3 478.8Z" fill="#001948" stroke="#001948"></path><path d="M483.3 540L562.8 477.8L470.3 455.7Z" fill="#0097d6" stroke="#0097d6"></path><path d="M565.3 0L453.7 -23.9L468.3 0Z" fill="#001948" stroke="#001948"></path><path d="M468.3 0L453.7 -23.9L386.7 0Z" fill="#000000" stroke="#000000"></path><path d="M386.7 0L453.7 -23.9L381.7 0Z" fill="#00467d" stroke="#00467d"></path><path d="M707.8 173.2L685.3 83.1L663.4 164.2Z" fill="#00467d" stroke="#00467d"></path><path d="M751.9 343.6L720.8 318.6L700.4 330.7Z" fill="#0097d6" stroke="#0097d6"></path><path d="M700.4 330.7L720.8 318.6L670.3 269.6Z" fill="#0186c5" stroke="#0186c5"></path><path d="M712.4 256.4L733.4 200.5L703.4 235.5Z" fill="#0097d6" stroke="#0097d6"></path><path d="M788.9 253.5L733.4 200.5L712.4 256.4Z" fill="#00568f" stroke="#00568f"></path><path d="M707.8 173.2L716.9 82.2L685.3 83.1Z" fill="#00568f" stroke="#00568f"></path><path d="M190.6 208.4L275.1 269.5L256.6 179.4Z" fill="#0166a1" stroke="#0166a1"></path><path d="M190.6 208.4L212.6 277.6L275.1 269.5Z" fill="#00568f" stroke="#00568f"></path><path d="M258.2 14.1L234.6 119.2L275.7 114.1Z" fill="#00568f" stroke="#00568f"></path><path d="M275.7 114.1L234.6 119.2L256.6 179.4Z" fill="#00a8e8" stroke="#00a8e8"></path><path d="M192.6 363.7L262.1 396.8L256.2 357.7Z" fill="#00568f" stroke="#00568f"></path><path d="M256.2 357.7L262.1 396.8L288.2 385.6Z" fill="#00568f" stroke="#00568f"></path><path d="M288.2 385.6L262.1 396.8L361.7 445.7Z" fill="#00467d" stroke="#00467d"></path><path d="M361.7 445.7L395.2 490.9L386.2 419.6Z" fill="#0176b3" stroke="#0176b3"></path><path d="M356.2 510.8L395.2 490.9L361.7 445.7Z" fill="#0166a1" stroke="#0166a1"></path><path d="M458.7 540L483.3 540L457.3 478.8Z" fill="#00a8e8" stroke="#00a8e8"></path><path d="M453.7 -23.9L334.2 0L381.7 0Z" fill="#0176b3" stroke="#0176b3"></path><path d="M381.7 0L334.2 0L402.7 56.2Z" fill="#0097d6" stroke="#0097d6"></path><path d="M597.8 12.1L614.8 0L565.3 0Z" fill="#002759" stroke="#002759"></path><path d="M565.3 0L614.8 0L453.7 -23.9Z" fill="#001948" stroke="#001948"></path><path d="M628.8 0L597.8 12.1L589.8 57.2Z" fill="#0097d6" stroke="#0097d6"></path><path d="M212.6 277.6L212.6 333.5L271.2 303.5Z" fill="#00467d" stroke="#00467d"></path><path d="M657.4 389.6L716.9 375.7L700.4 330.7Z" fill="#001948" stroke="#001948"></path><path d="M785.9 303.5L788.9 253.5L712.4 256.4Z" fill="#00467d" stroke="#00467d"></path><path d="M693.8 421.9L716.9 375.7L657.4 389.6Z" fill="#0186c5" stroke="#0186c5"></path><path d="M642.4 0L628.8 0L589.8 57.2Z" fill="#00a8e8" stroke="#00a8e8"></path><path d="M614.8 0L628.8 0L453.7 -23.9Z" fill="#0186c5" stroke="#0186c5"></path><path d="M172.1 184.3L190.6 208.4L256.6 179.4Z" fill="#00a8e8" stroke="#00a8e8"></path><path d="M183.1 362.7L192.6 363.7L212.6 333.5Z" fill="#000000" stroke="#000000"></path><path d="M453.7 -23.9L310.2 0L334.2 0Z" fill="#00467d" stroke="#00467d"></path><path d="M334.2 0L310.2 0L347.2 122.2Z" fill="#00568f" stroke="#00568f"></path><path d="M801.9 156.2L716.9 82.2L707.8 173.2Z" fill="#0176b3" stroke="#0176b3"></path><path d="M672.8 10.1L642.4 0L589.8 57.2Z" fill="#0097d6" stroke="#0097d6"></path><path d="M562.8 477.8L693.8 421.9L657.4 389.6Z" fill="#0097d6" stroke="#0097d6"></path><path d="M672.8 10.1L589.8 57.2L685.3 83.1Z" fill="#0166a1" stroke="#0166a1"></path><path d="M628.8 0L642.4 0L453.7 -23.9Z" fill="#000000" stroke="#000000"></path><path d="M172.1 184.3L177.6 219.3L190.6 208.4Z" fill="#00568f" stroke="#00568f"></path><path d="M190.6 208.4L177.6 219.3L212.6 277.6Z" fill="#00a8e8" stroke="#00a8e8"></path><path d="M755.4 424.8L751.9 343.6L716.9 375.7Z" fill="#0186c5" stroke="#0186c5"></path><path d="M716.9 375.7L751.9 343.6L700.4 330.7Z" fill="#0186c5" stroke="#0186c5"></path><path d="M728.8 68.3L672.8 10.1L685.3 83.1Z" fill="#00a8e8" stroke="#00a8e8"></path><path d="M273.6 510.9L356.2 510.8L361.7 445.7Z" fill="#00467d" stroke="#00467d"></path><path d="M458.7 540L457.3 478.8L425.7 481.8Z" fill="#000000" stroke="#000000"></path><path d="M803.9 104.3L728.8 68.3L716.9 82.2Z" fill="#0176b3" stroke="#0176b3"></path><path d="M716.9 82.2L728.8 68.3L685.3 83.1Z" fill="#00a8e8" stroke="#00a8e8"></path><path d="M801.9 156.2L707.8 173.2L733.4 200.5Z" fill="#002759" stroke="#002759"></path><path d="M458.7 540L425.7 481.8L417.2 540Z" fill="#0186c5" stroke="#0186c5"></path><path d="M562.8 477.8L631.8 540L693.8 421.9Z" fill="#00366b" stroke="#00366b"></path><path d="M417.2 540L425.7 481.8L395.2 490.9Z" fill="#0176b3" stroke="#0176b3"></path><path d="M234.6 119.2L172.1 184.3L256.6 179.4Z" fill="#0176b3" stroke="#0176b3"></path><path d="M147.1 159.2L172.1 184.3L153.1 117.3Z" fill="#00a8e8" stroke="#00a8e8"></path><path d="M310.2 0L258.2 14.1L275.7 114.1Z" fill="#0166a1" stroke="#0166a1"></path><path d="M212.6 333.5L192.6 363.7L256.2 357.7Z" fill="#0176b3" stroke="#0176b3"></path><path d="M262.1 396.8L273.6 510.9L361.7 445.7Z" fill="#002759" stroke="#002759"></path><path d="M142.1 286.5L212.6 333.5L212.6 277.6Z" fill="#00a8e8" stroke="#00a8e8"></path><path d="M158.1 244.4L212.6 277.6L177.6 219.3Z" fill="#0166a1" stroke="#0166a1"></path><path d="M379.7 540L417.2 540L395.2 490.9Z" fill="#0097d6" stroke="#0097d6"></path><path d="M458.7 540L482.8 545.9L483.3 540Z" fill="#00a8e8" stroke="#00a8e8"></path><path d="M483.3 540L536.3 550.9L562.8 477.8Z" fill="#0176b3" stroke="#0176b3"></path><path d="M407.7 558.9L482.8 545.9L458.7 540Z" fill="#0176b3" stroke="#0176b3"></path><path d="M785.9 303.5L712.4 256.4L720.8 318.6Z" fill="#001948" stroke="#001948"></path><path d="M134.6 221.3L158.1 244.4L177.6 219.3Z" fill="#002759" stroke="#002759"></path><path d="M135.1 341.6L183.1 362.7L212.6 333.5Z" fill="#0186c5" stroke="#0186c5"></path><path d="M192.6 363.7L201.6 420.8L262.1 396.8Z" fill="#002759" stroke="#002759"></path><path d="M751.9 343.6L785.9 303.5L720.8 318.6Z" fill="#00a8e8" stroke="#00a8e8"></path><path d="M800.9 291.5L878.5 350.7L874.4 273.4Z" fill="#0097d6" stroke="#0097d6"></path><path d="M356.2 510.8L379.7 540L395.2 490.9Z" fill="#00366b" stroke="#00366b"></path><path d="M417.2 540L407.7 558.9L458.7 540Z" fill="#000000" stroke="#000000"></path><path d="M369.2 540L379.7 540L356.2 510.8Z" fill="#00467d" stroke="#00467d"></path><path d="M800.9 291.5L794.4 242.5L788.9 253.5Z" fill="#002759" stroke="#002759"></path><path d="M788.9 253.5L794.4 242.5L733.4 200.5Z" fill="#0097d6" stroke="#0097d6"></path><path d="M407.7 558.9L536.3 550.9L482.8 545.9Z" fill="#0176b3" stroke="#0176b3"></path><path d="M482.8 545.9L536.3 550.9L483.3 540Z" fill="#00a8e8" stroke="#00a8e8"></path><path d="M309.6 540L369.2 540L356.2 510.8Z" fill="#00467d" stroke="#00467d"></path><path d="M379.7 540L407.7 558.9L417.2 540Z" fill="#0166a1" stroke="#0166a1"></path><path d="M536.3 550.9L585.8 540L562.8 477.8Z" fill="#0097d6" stroke="#0097d6"></path><path d="M209.1 -10.9L244.1 0L310.2 0Z" fill="#0176b3" stroke="#0176b3"></path><path d="M310.2 0L244.1 0L258.2 14.1Z" fill="#00366b" stroke="#00366b"></path><path d="M258.2 14.1L157.6 54.2L234.6 119.2Z" fill="#00568f" stroke="#00568f"></path><path d="M168.6 416.7L201.6 420.8L192.6 363.7Z" fill="#00568f" stroke="#00568f"></path><path d="M369.2 540L407.7 558.9L379.7 540Z" fill="#00366b" stroke="#00366b"></path><path d="M878.5 350.7L785.9 303.5L751.9 343.6Z" fill="#001948" stroke="#001948"></path><path d="M785.9 303.5L800.9 291.5L788.9 253.5Z" fill="#001948" stroke="#001948"></path><path d="M536.3 550.9L604.3 540L585.8 540Z" fill="#001948" stroke="#001948"></path><path d="M585.8 540L604.3 540L562.8 477.8Z" fill="#002759" stroke="#002759"></path><path d="M693.8 421.9L755.4 424.8L716.9 375.7Z" fill="#0166a1" stroke="#0166a1"></path><path d="M153.1 117.3L172.1 184.3L234.6 119.2Z" fill="#0176b3" stroke="#0176b3"></path><path d="M172.1 184.3L134.6 221.3L177.6 219.3Z" fill="#0176b3" stroke="#0176b3"></path><path d="M96.5 274.4L142.1 286.5L158.1 244.4Z" fill="#0186c5" stroke="#0186c5"></path><path d="M158.1 244.4L142.1 286.5L212.6 277.6Z" fill="#00467d" stroke="#00467d"></path><path d="M183.1 362.7L168.6 416.7L192.6 363.7Z" fill="#00a8e8" stroke="#00a8e8"></path><path d="M811.9 168.5L733.4 200.5L816.4 180.3Z" fill="#0186c5" stroke="#0186c5"></path><path d="M811.9 168.5L801.9 156.2L733.4 200.5Z" fill="#00568f" stroke="#00568f"></path><path d="M686.4 540L728.9 456.8L693.8 421.9Z" fill="#00568f" stroke="#00568f"></path><path d="M728.9 456.8L755.4 424.8L693.8 421.9Z" fill="#000000" stroke="#000000"></path><path d="M124.5 171.5L134.6 221.3L172.1 184.3Z" fill="#0176b3" stroke="#0176b3"></path><path d="M201.6 420.8L273.6 510.9L262.1 396.8Z" fill="#002759" stroke="#002759"></path><path d="M369.2 540L295.7 559.9L407.7 558.9Z" fill="#0166a1" stroke="#0166a1"></path><path d="M157.6 54.2L153.1 117.3L234.6 119.2Z" fill="#0097d6" stroke="#0097d6"></path><path d="M147.1 159.2L124.5 171.5L172.1 184.3Z" fill="#000000" stroke="#000000"></path><path d="M705.9 558.9L631.8 540L604.3 540Z" fill="#000000" stroke="#000000"></path><path d="M604.3 540L631.8 540L562.8 477.8Z" fill="#0176b3" stroke="#0176b3"></path><path d="M816.4 180.3L733.4 200.5L794.4 242.5Z" fill="#00366b" stroke="#00366b"></path><path d="M273.6 510.9L309.6 540L356.2 510.8Z" fill="#00366b" stroke="#00366b"></path><path d="M828.4 218.5L816.4 180.3L794.4 242.5Z" fill="#002759" stroke="#002759"></path><path d="M755.9 540L758.4 445.9L728.9 456.8Z" fill="#0097d6" stroke="#0097d6"></path><path d="M728.9 456.8L758.4 445.9L755.4 424.8Z" fill="#0186c5" stroke="#0186c5"></path><path d="M878.5 350.7L800.9 291.5L785.9 303.5Z" fill="#000000" stroke="#000000"></path><path d="M801.9 156.2L803.9 104.3L716.9 82.2Z" fill="#00a8e8" stroke="#00a8e8"></path><path d="M728.8 68.3L790.4 14.1L672.8 10.1Z" fill="#00467d" stroke="#00467d"></path><path d="M814.9 117.4L803.9 104.3L801.9 156.2Z" fill="#0186c5" stroke="#0186c5"></path><path d="M814.9 117.4L801.9 156.2L853.4 133.2Z" fill="#00467d" stroke="#00467d"></path><path d="M839.5 224.5L828.4 218.5L794.4 242.5Z" fill="#0186c5" stroke="#0186c5"></path><path d="M816.4 180.3L828.9 191.3L811.9 168.5Z" fill="#0097d6" stroke="#0097d6"></path><path d="M839.5 224.5L794.4 242.5L800.9 291.5Z" fill="#0097d6" stroke="#0097d6"></path><path d="M153.1 117.3L124.5 171.5L147.1 159.2Z" fill="#0176b3" stroke="#0176b3"></path><path d="M119.5 295.6L135.1 341.6L142.1 286.5Z" fill="#00a8e8" stroke="#00a8e8"></path><path d="M119.5 295.6L142.1 286.5L96.5 274.4Z" fill="#000000" stroke="#000000"></path><path d="M142.1 286.5L135.1 341.6L212.6 333.5Z" fill="#001948" stroke="#001948"></path><path d="M201.6 420.8L216.1 540L273.6 510.9Z" fill="#0097d6" stroke="#0097d6"></path><path d="M111.6 395.8L168.6 416.7L183.1 362.7Z" fill="#002759" stroke="#002759"></path><path d="M828.4 218.5L828.9 191.3L816.4 180.3Z" fill="#001948" stroke="#001948"></path><path d="M96.5 274.4L158.1 244.4L134.6 221.3Z" fill="#0186c5" stroke="#0186c5"></path><path d="M853.4 133.2L801.9 156.2L811.9 168.5Z" fill="#0097d6" stroke="#0097d6"></path><path d="M244.1 0L193.6 4.1L258.2 14.1Z" fill="#0097d6" stroke="#0097d6"></path><path d="M44.5 175.2L116.5 179.3L37.1 150.2Z" fill="#00467d" stroke="#00467d"></path><path d="M453.7 -23.9L209.1 -10.9L310.2 0Z" fill="#00366b" stroke="#00366b"></path><path d="M116.5 179.3L124.5 171.5L37.1 150.2Z" fill="#00a8e8" stroke="#00a8e8"></path><path d="M124.5 171.5L116.5 179.3L134.6 221.3Z" fill="#000000" stroke="#000000"></path><path d="M209.1 -10.9L193.6 4.1L244.1 0Z" fill="#002759" stroke="#002759"></path><path d="M193.6 4.1L157.6 54.2L258.2 14.1Z" fill="#000000" stroke="#000000"></path><path d="M828.4 218.5L839.5 224.5L828.9 191.3Z" fill="#00a8e8" stroke="#00a8e8"></path><path d="M828.9 191.3L853.4 133.2L811.9 168.5Z" fill="#00467d" stroke="#00467d"></path><path d="M874.4 273.4L839.5 224.5L800.9 291.5Z" fill="#0166a1" stroke="#0166a1"></path><path d="M853.4 133.2L811.9 95.1L814.9 117.4Z" fill="#00568f" stroke="#00568f"></path><path d="M814.9 117.4L811.9 95.1L803.9 104.3Z" fill="#00467d" stroke="#00467d"></path><path d="M803.9 104.3L811.9 95.1L728.8 68.3Z" fill="#00a8e8" stroke="#00a8e8"></path><path d="M247.2 570.9L295.7 559.9L273.6 510.9Z" fill="#0176b3" stroke="#0176b3"></path><path d="M273.6 510.9L295.7 559.9L309.6 540Z" fill="#00366b" stroke="#00366b"></path><path d="M309.6 540L295.7 559.9L369.2 540Z" fill="#00467d" stroke="#00467d"></path><path d="M705.9 558.9L686.4 540L631.8 540Z" fill="#0186c5" stroke="#0186c5"></path><path d="M631.8 540L686.4 540L693.8 421.9Z" fill="#00a8e8" stroke="#00a8e8"></path><path d="M171.6 -12.9L176.6 0L193.6 4.1Z" fill="#0166a1" stroke="#0166a1"></path><path d="M193.6 4.1L176.6 0L157.6 54.2Z" fill="#00366b" stroke="#00366b"></path><path d="M70.6 228.5L96.5 274.4L134.6 221.3Z" fill="#0186c5" stroke="#0186c5"></path><path d="M93.1 388.7L111.6 395.8L135.1 341.6Z" fill="#0176b3" stroke="#0176b3"></path><path d="M111.6 395.8L135.1 438.9L168.6 416.7Z" fill="#000000" stroke="#000000"></path><path d="M811.9 95.1L790.4 14.1L728.8 68.3Z" fill="#00a8e8" stroke="#00a8e8"></path><path d="M672.8 10.1L820.9 0L642.4 0Z" fill="#00568f" stroke="#00568f"></path><path d="M642.4 0L849.9 -6.9L453.7 -23.9Z" fill="#001948" stroke="#001948"></path><path d="M96.5 -26.9L171.6 -12.9L209.1 -10.9Z" fill="#00568f" stroke="#00568f"></path><path d="M209.1 -10.9L171.6 -12.9L193.6 4.1Z" fill="#00366b" stroke="#00366b"></path><path d="M176.6 0L94.6 0L157.6 54.2Z" fill="#001948" stroke="#001948"></path><path d="M44.5 175.2L70.6 228.5L116.5 179.3Z" fill="#00568f" stroke="#00568f"></path><path d="M960 200.4L853.4 133.2L828.9 191.3Z" fill="#0097d6" stroke="#0097d6"></path><path d="M811.9 95.1L820.9 0L790.4 14.1Z" fill="#0186c5" stroke="#0186c5"></path><path d="M111.6 395.8L183.1 362.7L135.1 341.6Z" fill="#001948" stroke="#001948"></path><path d="M168.6 416.7L135.1 438.9L201.6 420.8Z" fill="#0166a1" stroke="#0166a1"></path><path d="M93.1 388.7L135.1 341.6L69.5 368.7Z" fill="#00568f" stroke="#00568f"></path><path d="M536.3 550.9L705.9 558.9L604.3 540Z" fill="#00467d" stroke="#00467d"></path><path d="M686.4 540L755.9 540L728.9 456.8Z" fill="#002759" stroke="#002759"></path><path d="M407.7 558.9L705.9 558.9L536.3 550.9Z" fill="#00366b" stroke="#00366b"></path><path d="M247.2 570.9L705.9 558.9L407.7 558.9Z" fill="#0166a1" stroke="#0166a1"></path><path d="M164.6 540L216.1 540L201.6 420.8Z" fill="#00568f" stroke="#00568f"></path><path d="M829.4 434.7L755.4 424.8L758.4 445.9Z" fill="#00568f" stroke="#00568f"></path><path d="M829.4 434.7L751.9 343.6L755.4 424.8Z" fill="#0166a1" stroke="#0166a1"></path><path d="M839.5 224.5L960 200.4L828.9 191.3Z" fill="#00a8e8" stroke="#00a8e8"></path><path d="M124.5 171.5L153.1 117.3L37.1 150.2Z" fill="#0166a1" stroke="#0166a1"></path><path d="M116.5 179.3L70.6 228.5L134.6 221.3Z" fill="#0186c5" stroke="#0186c5"></path><path d="M96.5 274.4L69.5 368.7L119.5 295.6Z" fill="#0166a1" stroke="#0166a1"></path><path d="M70.6 228.5L71.6 269.6L96.5 274.4Z" fill="#000000" stroke="#000000"></path><path d="M216.1 540L247.2 570.9L273.6 510.9Z" fill="#001948" stroke="#001948"></path><path d="M295.7 559.9L247.2 570.9L407.7 558.9Z" fill="#00568f" stroke="#00568f"></path><path d="M844.4 445.9L829.4 434.7L802.4 517.8Z" fill="#002759" stroke="#002759"></path><path d="M111.6 395.8L111.6 458.9L135.1 438.9Z" fill="#0166a1" stroke="#0166a1"></path><path d="M135.1 438.9L164.6 540L201.6 420.8Z" fill="#0186c5" stroke="#0186c5"></path><path d="M69.5 368.7L135.1 341.6L119.5 295.6Z" fill="#00568f" stroke="#00568f"></path><path d="M936.5 318.5L885.4 266.6L874.4 273.4Z" fill="#0166a1" stroke="#0166a1"></path><path d="M874.4 273.4L885.4 266.6L839.5 224.5Z" fill="#00366b" stroke="#00366b"></path><path d="M705.9 558.9L755.9 540L686.4 540Z" fill="#0176b3" stroke="#0176b3"></path><path d="M70.6 228.5L58.1 262.6L71.6 269.6Z" fill="#00a8e8" stroke="#00a8e8"></path><path d="M71.6 269.6L69.5 368.7L96.5 274.4Z" fill="#0166a1" stroke="#0166a1"></path><path d="M830.5 0L820.9 0L811.9 95.1Z" fill="#0166a1" stroke="#0166a1"></path><path d="M790.4 14.1L820.9 0L672.8 10.1Z" fill="#00467d" stroke="#00467d"></path><path d="M33.1 216.4L56.1 266.5L58.1 262.6Z" fill="#000000" stroke="#000000"></path><path d="M58.1 262.6L56.1 266.5L71.6 269.6Z" fill="#0166a1" stroke="#0166a1"></path><path d="M878.5 379.6L878.5 350.7L751.9 343.6Z" fill="#0176b3" stroke="#0176b3"></path><path d="M56.1 266.5L69.5 368.7L71.6 269.6Z" fill="#0176b3" stroke="#0176b3"></path><path d="M66.1 437.8L111.6 458.9L111.6 395.8Z" fill="#00366b" stroke="#00366b"></path><path d="M66.1 437.8L111.6 395.8L93.1 388.7Z" fill="#0176b3" stroke="#0176b3"></path><path d="M216.1 540L164.6 540L247.2 570.9Z" fill="#001948" stroke="#001948"></path><path d="M802.4 517.8L829.4 434.7L758.4 445.9Z" fill="#0186c5" stroke="#0186c5"></path><path d="M829.4 434.7L861.9 413.8L751.9 343.6Z" fill="#002759" stroke="#002759"></path><path d="M884.5 64.2L830.5 0L811.9 95.1Z" fill="#001948" stroke="#001948"></path><path d="M820.9 0L849.9 -6.9L642.4 0Z" fill="#0166a1" stroke="#0166a1"></path><path d="M884.5 64.2L811.9 95.1L853.4 133.2Z" fill="#002759" stroke="#002759"></path><path d="M844.4 445.9L861.9 413.8L829.4 434.7Z" fill="#00467d" stroke="#00467d"></path><path d="M861.9 413.8L878.5 379.6L751.9 343.6Z" fill="#00568f" stroke="#00568f"></path><path d="M878.5 350.7L936.5 318.5L874.4 273.4Z" fill="#00568f" stroke="#00568f"></path><path d="M844.4 445.9L865.9 414.7L861.9 413.8Z" fill="#00467d" stroke="#00467d"></path><path d="M861.9 413.8L865.9 414.7L878.5 379.6Z" fill="#000000" stroke="#000000"></path><path d="M755.9 540L802.4 517.8L758.4 445.9Z" fill="#0176b3" stroke="#0176b3"></path><path d="M844.4 445.9L896.9 463.9L865.9 414.7Z" fill="#00a8e8" stroke="#00a8e8"></path><path d="M37.1 150.2L153.1 117.3L82.1 0Z" fill="#00568f" stroke="#00568f"></path><path d="M70.6 228.5L33.1 216.4L58.1 262.6Z" fill="#00568f" stroke="#00568f"></path><path d="M111.6 458.9L164.6 540L135.1 438.9Z" fill="#00366b" stroke="#00366b"></path><path d="M44.5 175.2L33.1 216.4L70.6 228.5Z" fill="#0166a1" stroke="#0166a1"></path><path d="M56.1 266.5L0 324.5L69.5 368.7Z" fill="#002759" stroke="#002759"></path><path d="M755.9 540L795.4 540L802.4 517.8Z" fill="#0097d6" stroke="#0097d6"></path><path d="M802.4 517.8L866.5 479.8L844.4 445.9Z" fill="#0166a1" stroke="#0166a1"></path><path d="M705.9 558.9L795.4 540L755.9 540Z" fill="#00568f" stroke="#00568f"></path><path d="M960 87.3L884.5 64.2L853.4 133.2Z" fill="#00a8e8" stroke="#00a8e8"></path><path d="M82.1 0L153.1 117.3L157.6 54.2Z" fill="#0166a1" stroke="#0166a1"></path><path d="M44.5 175.2L0 156.3L33.1 216.4Z" fill="#00a8e8" stroke="#00a8e8"></path><path d="M171.6 -12.9L94.6 0L176.6 0Z" fill="#00467d" stroke="#00467d"></path><path d="M96.5 -26.9L94.5 0L94.6 0Z" fill="#00568f" stroke="#00568f"></path><path d="M94.6 0L94.5 0L157.6 54.2Z" fill="#002759" stroke="#002759"></path><path d="M884.5 64.2L849.9 -6.9L830.5 0Z" fill="#002759" stroke="#002759"></path><path d="M830.5 0L849.9 -6.9L820.9 0Z" fill="#00467d" stroke="#00467d"></path><path d="M69.5 368.7L66.1 437.8L93.1 388.7Z" fill="#001948" stroke="#001948"></path><path d="M90.5 547.9L131.1 567.9L164.6 540Z" fill="#002759" stroke="#002759"></path><path d="M15.5 420.8L66.1 437.8L69.5 368.7Z" fill="#00366b" stroke="#00366b"></path><path d="M96.5 -26.9L82.1 0L94.5 0Z" fill="#0176b3" stroke="#0176b3"></path><path d="M94.5 0L82.1 0L157.6 54.2Z" fill="#0186c5" stroke="#0186c5"></path><path d="M453.7 -23.9L96.5 -26.9L209.1 -10.9Z" fill="#00568f" stroke="#00568f"></path><path d="M171.6 -12.9L96.5 -26.9L94.6 0Z" fill="#00a8e8" stroke="#00a8e8"></path><path d="M835.9 540L866.5 479.8L802.4 517.8Z" fill="#0097d6" stroke="#0097d6"></path><path d="M960 392.7L930.9 343.6L878.5 379.6Z" fill="#00a8e8" stroke="#00a8e8"></path><path d="M884.5 64.2L877.4 0L849.9 -6.9Z" fill="#00568f" stroke="#00568f"></path><path d="M878.5 379.6L930.9 343.6L878.5 350.7Z" fill="#001948" stroke="#001948"></path><path d="M885.4 266.6L960 200.4L839.5 224.5Z" fill="#00366b" stroke="#00366b"></path><path d="M884.5 64.2L910.9 0L877.4 0Z" fill="#00467d" stroke="#00467d"></path><path d="M960 392.7L878.5 379.6L865.9 414.7Z" fill="#0176b3" stroke="#0176b3"></path><path d="M930.9 343.6L936.5 318.5L878.5 350.7Z" fill="#00568f" stroke="#00568f"></path><path d="M795.4 540L835.9 540L802.4 517.8Z" fill="#00467d" stroke="#00467d"></path><path d="M705.9 558.9L835.9 540L795.4 540Z" fill="#00366b" stroke="#00366b"></path><path d="M0 156.3L0 285.6L33.1 216.4Z" fill="#0176b3" stroke="#0176b3"></path><path d="M33.1 216.4L0 285.6L56.1 266.5Z" fill="#0176b3" stroke="#0176b3"></path><path d="M90.5 547.9L164.6 540L111.6 458.9Z" fill="#0186c5" stroke="#0186c5"></path><path d="M164.6 540L131.1 567.9L247.2 570.9Z" fill="#00366b" stroke="#00366b"></path><path d="M0 285.6L0 309.5L56.1 266.5Z" fill="#00467d" stroke="#00467d"></path><path d="M66.1 437.8L90.5 547.9L111.6 458.9Z" fill="#00467d" stroke="#00467d"></path><path d="M0 139.4L0 156.3L37.1 150.2Z" fill="#0186c5" stroke="#0186c5"></path><path d="M37.1 150.2L0 156.3L44.5 175.2Z" fill="#0176b3" stroke="#0176b3"></path><path d="M96.5 -26.9L54.1 1.1L82.1 0Z" fill="#0097d6" stroke="#0097d6"></path><path d="M82.1 0L0 63.2L37.1 150.2Z" fill="#00a8e8" stroke="#00a8e8"></path><path d="M923.5 516.9L896.9 463.9L866.5 479.8Z" fill="#0186c5" stroke="#0186c5"></path><path d="M866.5 479.8L896.9 463.9L844.4 445.9Z" fill="#0166a1" stroke="#0166a1"></path><path d="M0 309.5L0 324.5L56.1 266.5Z" fill="#00467d" stroke="#00467d"></path><path d="M0 63.2L0 139.4L37.1 150.2Z" fill="#0186c5" stroke="#0186c5"></path><path d="M960 303.5L936.5 318.5L960 314.6Z" fill="#0176b3" stroke="#0176b3"></path><path d="M960 303.5L885.4 266.6L936.5 318.5Z" fill="#0097d6" stroke="#0097d6"></path><path d="M960 303.5L960 245.5L885.4 266.6Z" fill="#002759" stroke="#002759"></path><path d="M960 245.5L960 200.4L885.4 266.6Z" fill="#0176b3" stroke="#0176b3"></path><path d="M960 314.6L936.5 318.5L930.9 343.6Z" fill="#00467d" stroke="#00467d"></path><path d="M960 392.7L960 314.6L930.9 343.6Z" fill="#0186c5" stroke="#0186c5"></path><path d="M-11.5 361.5L15.5 420.8L69.5 368.7Z" fill="#002759" stroke="#002759"></path><path d="M30.1 540L90.5 547.9L66.1 437.8Z" fill="#0176b3" stroke="#0176b3"></path><path d="M959.5 64.1L910.9 0L884.5 64.2Z" fill="#000000" stroke="#000000"></path><path d="M877.4 0L960 -18.9L849.9 -6.9Z" fill="#00467d" stroke="#00467d"></path><path d="M0 309.5L-11.5 361.5L0 324.5Z" fill="#002759" stroke="#002759"></path><path d="M0 324.5L-11.5 361.5L69.5 368.7Z" fill="#00467d" stroke="#00467d"></path><path d="M0 285.6L-11.5 361.5L0 309.5Z" fill="#001948" stroke="#001948"></path><path d="M0 156.3L-11.5 361.5L0 285.6Z" fill="#00568f" stroke="#00568f"></path><path d="M0 139.4L-11.5 361.5L0 156.3Z" fill="#001948" stroke="#001948"></path><path d="M54.1 1.1L0 63.2L82.1 0Z" fill="#001948" stroke="#001948"></path><path d="M0 139.4L0 63.2L-11.5 361.5Z" fill="#00467d" stroke="#00467d"></path><path d="M960 200.4L960 87.3L853.4 133.2Z" fill="#001948" stroke="#001948"></path><path d="M960 314.6L984.5 249.4L960 303.5Z" fill="#00467d" stroke="#00467d"></path><path d="M960 303.5L984.5 249.4L960 245.5Z" fill="#0097d6" stroke="#0097d6"></path><path d="M960 245.5L984.5 249.4L960 200.4Z" fill="#00a8e8" stroke="#00a8e8"></path><path d="M960 200.4L984.5 249.4L960 87.3Z" fill="#002759" stroke="#002759"></path><path d="M896.9 463.9L960 392.7L865.9 414.7Z" fill="#00366b" stroke="#00366b"></path><path d="M960 314.6L960 392.7L984.5 249.4Z" fill="#0186c5" stroke="#0186c5"></path><path d="M960 498.8L960 392.7L896.9 463.9Z" fill="#0176b3" stroke="#0176b3"></path><path d="M984.5 249.4L960.5 76.3L960 87.3Z" fill="#0176b3" stroke="#0176b3"></path><path d="M960 87.3L960.5 76.3L884.5 64.2Z" fill="#0186c5" stroke="#0186c5"></path><path d="M960.5 76.3L960 68.2L884.5 64.2Z" fill="#00a8e8" stroke="#00a8e8"></path><path d="M960 0L960 68.2L960.5 76.3Z" fill="#0097d6" stroke="#0097d6"></path><path d="M960 0L959.5 64.1L960 68.2Z" fill="#00568f" stroke="#00568f"></path><path d="M960 68.2L959.5 64.1L884.5 64.2Z" fill="#0097d6" stroke="#0097d6"></path><path d="M-11.5 361.5L0 452.8L15.5 420.8Z" fill="#000000" stroke="#000000"></path><path d="M15.5 420.8L0 452.8L66.1 437.8Z" fill="#002759" stroke="#002759"></path><path d="M0 -22.9L0 0L54.1 1.1Z" fill="#0097d6" stroke="#0097d6"></path><path d="M54.1 1.1L0 0L0 63.2Z" fill="#0097d6" stroke="#0097d6"></path><path d="M0 63.2L0 0L-11.5 361.5Z" fill="#00366b" stroke="#00366b"></path><path d="M-11.5 361.5L0 469.7L0 452.8Z" fill="#00568f" stroke="#00568f"></path><path d="M0 452.8L0 469.7L66.1 437.8Z" fill="#0176b3" stroke="#0176b3"></path><path d="M835.9 540L923.5 516.9L866.5 479.8Z" fill="#00366b" stroke="#00366b"></path><path d="M0 469.7L30.1 540L66.1 437.8Z" fill="#00366b" stroke="#00366b"></path><path d="M90.5 547.9L30.1 540L131.1 567.9Z" fill="#00568f" stroke="#00568f"></path><path d="M96.5 -26.9L0 -22.9L54.1 1.1Z" fill="#0176b3" stroke="#0176b3"></path><path d="M0 0L0 -22.9L-11.5 361.5Z" fill="#00467d" stroke="#00467d"></path><path d="M984.5 249.4L960 0L960.5 76.3Z" fill="#00467d" stroke="#00467d"></path><path d="M959.5 64.1L960 0L910.9 0Z" fill="#00a8e8" stroke="#00a8e8"></path><path d="M910.9 0L960 -18.9L877.4 0Z" fill="#0186c5" stroke="#0186c5"></path><path d="M984.5 249.4L960 -18.9L960 0Z" fill="#0176b3" stroke="#0176b3"></path><path d="M960 0L960 -18.9L910.9 0Z" fill="#0097d6" stroke="#0097d6"></path><path d="M849.9 -6.9L960 -18.9L453.7 -23.9Z" fill="#0097d6" stroke="#0097d6"></path><path d="M0 517.9L14.5 540L30.1 540Z" fill="#001948" stroke="#001948"></path><path d="M30.1 540L14.5 540L131.1 567.9Z" fill="#0186c5" stroke="#0186c5"></path><path d="M-11.5 361.5L0 517.9L0 469.7Z" fill="#00a8e8" stroke="#00a8e8"></path><path d="M0 469.7L0 517.9L30.1 540Z" fill="#001948" stroke="#001948"></path><path d="M923.5 516.9L960 498.8L896.9 463.9Z" fill="#0176b3" stroke="#0176b3"></path><path d="M960 392.7L960 498.8L984.5 249.4Z" fill="#00a8e8" stroke="#00a8e8"></path><path d="M-11.5 361.5L0 540L0 517.9Z" fill="#0097d6" stroke="#0097d6"></path><path d="M0 517.9L0 540L14.5 540Z" fill="#0097d6" stroke="#0097d6"></path><path d="M14.5 540L0 540L131.1 567.9Z" fill="#000000" stroke="#000000"></path><path d="M835.9 540L953.5 540L923.5 516.9Z" fill="#0166a1" stroke="#0166a1"></path><path d="M923.5 516.9L960 534.9L960 498.8Z" fill="#0097d6" stroke="#0097d6"></path><path d="M705.9 558.9L953.5 540L835.9 540Z" fill="#000000" stroke="#000000"></path><path d="M953.5 540L960 534.9L923.5 516.9Z" fill="#00568f" stroke="#00568f"></path><path d="M960 498.8L960 534.9L984.5 249.4Z" fill="#00a8e8" stroke="#00a8e8"></path><path d="M705.9 558.9L960 540L953.5 540Z" fill="#0186c5" stroke="#0186c5"></path><path d="M953.5 540L960 540L960 534.9Z" fill="#002759" stroke="#002759"></path><path d="M960 534.9L960 540L984.5 249.4Z" fill="#0176b3" stroke="#0176b3"></path></g></svg>